HIERARCHY
ROOT SpineBase
{
  OFFSET 0.000000 0.000000 0.000000
  CHANNELS 6 Xposition Yposition Zposition Zrotation Xrotation Yrotation
  JOINT SpineMid
  {
    OFFSET 0.000000 33.307929 0.000000
    CHANNELS 3 Zrotation Xrotation Yrotation
    JOINT SpineShoulder
    {
      OFFSET 0.270910 24.954639 -0.946814
      CHANNELS 3 Zrotation Xrotation Yrotation
      JOINT Neck
      {
        OFFSET 0.011449 8.255658 -0.665075
        CHANNELS 3 Zrotation Xrotation Yrotation
        JOINT Head
        {
          OFFSET 4.651358 13.052890 5.977903
          CHANNELS 3 Zrotation Xrotation Yrotation
          End Site
          {
            OFFSET 0 0 0
          }
        }
      }
      JOINT ShoulderLeft
      {
        OFFSET 1.961466 -5.481529 -15.087880
        CHANNELS 3 Zrotation Xrotation Yrotation
        JOINT ElbowLeft
        {
          OFFSET 9.400868 -27.797488 -7.384496
          CHANNELS 3 Zrotation Xrotation Yrotation
          JOINT WristLeft
          {
            OFFSET 12.315785 -21.364759 -1.897796
            CHANNELS 3 Zrotation Xrotation Yrotation
            JOINT HandLeft
            {
              OFFSET 4.334647 -6.978671 1.278600
              CHANNELS 3 Zrotation Xrotation Yrotation
              JOINT HandTipLeft
              {
                OFFSET 1.920066 -7.277329 2.175423
                CHANNELS 3 Zrotation Xrotation Yrotation
                End Site
                {
                  OFFSET 0 0 0
                }
              }
              JOINT ThumbLeft
              {
                OFFSET -0.702917 -3.432751 -1.976401
                CHANNELS 3 Zrotation Xrotation Yrotation
                End Site
                {
                  OFFSET 0 0 0
                }
              }
            }
          }
        }
      }
      JOINT ShoulderRight
      {
        OFFSET 7.269211 -6.327971 15.503668
        CHANNELS 3 Zrotation Xrotation Yrotation
        JOINT ElbowRight
        {
          OFFSET 4.054885 -20.120932 -28.151883
          CHANNELS 3 Zrotation Xrotation Yrotation
          JOINT WristRight
          {
            OFFSET 7.488221 -28.699135 -16.567545
            CHANNELS 3 Zrotation Xrotation Yrotation
            JOINT HandRight
            {
              OFFSET 5.067286 -1.670314 4.699056
              CHANNELS 3 Zrotation Xrotation Yrotation
              JOINT HandTipRight
              {
                OFFSET 3.155494 -7.153883 0.396727
                CHANNELS 3 Zrotation Xrotation Yrotation
                End Site
                {
                  OFFSET 0 0 0
                }
              }
              JOINT ThumbRight
              {
                OFFSET 2.249605 2.598905 -3.340716
                CHANNELS 3 Zrotation Xrotation Yrotation
                End Site
                {
                  OFFSET 0 0 0
                }
              }
            }
          }
        }
      }
    }
  }
  JOINT HipLeft
  {
    OFFSET -0.704247 1.350814 -9.005824
    CHANNELS 3 Zrotation Xrotation Yrotation
    JOINT KneeLeft
    {
      OFFSET 21.816725 -30.306502 -4.163856
      CHANNELS 3 Zrotation Xrotation Yrotation
      JOINT AnkleLeft
      {
        OFFSET -1.997922 -42.404525 1.824363
        CHANNELS 3 Zrotation Xrotation Yrotation
        JOINT FootLeft
        {
          OFFSET 9.559342 -3.458346 -4.167257
          CHANNELS 3 Zrotation Xrotation Yrotation
          End Site
          {
            OFFSET 0 0 0
          }
        }
      }
    }
  }
  JOINT HipRight
  {
    OFFSET 1.384702 0.252103 1.497099
    CHANNELS 3 Zrotation Xrotation Yrotation
    JOINT KneeRight
    {
      OFFSET 12.419405 -37.795222 -9.361298
      CHANNELS 3 Zrotation Xrotation Yrotation
      JOINT AnkleRight
      {
        OFFSET -5.306704 -36.496155 7.736170
        CHANNELS 3 Zrotation Xrotation Yrotation
        JOINT FootRight
        {
          OFFSET 9.479205 -2.198319 -10.557772
          CHANNELS 3 Zrotation Xrotation Yrotation
          End Site
          {
            OFFSET 0 0 0
          }
        }
      }
    }
  }
}
MOTION
Frames: 15
Frame Time: 0.033333
-14.299418 82.925827 314.654035 5.935398 2.622834 -23.550852 -0.030192 0.165445 23.603964 -0.987125 -0.065718 0.180977 14.657251 -3.298166 -8.927991 0.000000 0.000000 0.000000 1.571834 0.850971 -0.924162 -9.745110 -9.009304 -2.916628 -22.961720 3.569833 -0.967037 27.859011 2.197078 5.485116 0.000000 0.000000 0.000000 0.000000 0.000000 0.000000 -0.319153 -10.653398 -8.932815 -3.489231 -1.593833 6.170260 -50.023924 40.237036 7.109153 34.939516 -34.272993 18.761100 0.000000 0.000000 0.000000 0.000000 0.000000 0.000000 -27.155576 -21.091126 16.073779 31.133372 9.848199 -0.515943 0.452930 1.616498 3.162584 0.000000 0.000000 0.000000 -23.152841 -41.389466 12.652357 46.188834 39.695068 -13.696501 -26.225215 -25.781696 -22.405605 0.000000 0.000000 0.000000
-13.635225 82.576099 314.076005 6.057503 2.905461 22.758498 0.117639 0.125502 -22.720328 -0.999784 -0.095141 0.187460 14.791670 -3.467939 -9.029373 0.000000 0.000000 0.000000 1.670827 1.375603 -0.762305 -9.878942 -9.425460 -3.006623 -18.587008 4.427105 0.275563 24.103106 0.575433 4.538017 0.000000 0.000000 0.000000 0.000000 0.000000 0.000000 0.061320 -10.422388 -9.494195 -4.745446 -0.955375 7.569512 -46.460371 38.574114 6.916296 33.062296 -33.636369 16.026933 0.000000 0.000000 0.000000 0.000000 0.000000 0.000000 -32.303766 4.863199 -22.036316 29.222065 5.517674 -1.190376 1.587039 3.234611 3.697158 0.000000 0.000000 0.000000 -47.896389 -16.032334 -32.696151 48.643804 41.587375 -15.154633 -25.146157 -24.112938 -20.440994 0.000000 0.000000 0.000000
-12.947716 82.293857 313.482318 6.206965 3.209038 45.230509 0.271084 0.032858 -45.206686 -1.021205 -0.109099 0.197268 14.830752 -3.358164 -9.313162 0.000000 0.000000 0.000000 1.251344 1.139117 -0.689838 -9.655596 -9.257872 -2.930883 -14.983452 4.241627 0.427743 20.806202 0.625920 4.095996 0.000000 0.000000 0.000000 0.000000 0.000000 0.000000 0.243927 -10.306876 -9.936666 -5.995543 0.338806 8.960600 -42.574888 36.018722 7.707332 31.611715 -33.467513 12.045468 0.000000 0.000000 0.000000 0.000000 0.000000 0.000000 -27.339110 17.268637 -40.354685 27.739076 1.866280 -1.896389 2.680585 4.460808 3.456502 0.000000 0.000000 0.000000 -52.863334 -0.011195 -48.737878 49.429202 42.458078 -15.568912 -21.880216 -20.599047 -19.626163 0.000000 0.000000 0.000000
-12.286248 82.021325 312.817990 6.393352 3.563941 56.349022 0.380310 -0.098687 -56.340937 -1.030859 -0.057136 0.207423 14.215310 -3.462058 -9.239687 0.000000 0.000000 0.000000 0.694139 0.237648 -0.758734 -9.671610 -8.658625 -2.695697 -11.032960 3.091518 -0.217204 15.319266 2.105629 3.639531 0.000000 0.000000 0.000000 0.000000 0.000000 0.000000 0.294814 -10.445704 -10.330346 -7.045379 0.139789 9.918674 -38.649767 33.043628 13.893955 22.574050 -35.025303 -0.050746 0.000000 0.000000 0.000000 0.000000 0.000000 0.000000 -23.077302 22.751867 -50.092500 26.948611 -0.598650 -2.501186 3.511131 5.094466 2.842136 0.000000 0.000000 0.000000 -55.029381 8.041356 -56.430994 48.353192 42.592721 -14.796455 -16.937845 -15.552348 -19.639359 0.000000 0.000000 0.000000
-11.894358 81.945006 312.447726 6.406824 3.818588 60.131751 0.446140 -0.214609 -60.132489 -1.011764 0.007373 0.212039 13.663915 -3.620906 -9.058827 0.000000 0.000000 0.000000 0.115903 -0.801349 -0.858190 -9.305625 -7.802496 -2.372192 -8.776540 1.914179 -0.919328 11.934677 2.893867 3.478942 0.000000 0.000000 0.000000 0.000000 0.000000 0.000000 0.265907 -10.191339 -10.312318 -7.446864 0.935201 10.334849 -36.626205 30.825136 16.607917 21.420216 -34.405483 -3.916537 0.000000 0.000000 0.000000 0.000000 0.000000 0.000000 -21.326659 24.473509 -53.497209 26.608821 -1.738792 -2.818050 3.996185 5.184987 2.050107 0.000000 0.000000 0.000000 -55.832385 10.522693 -59.340606 45.303747 41.295973 -12.681573 -11.166561 -9.819556 -20.405736 0.000000 0.000000 0.000000
-11.710048 82.170316 312.407431 6.344411 3.967809 58.534472 0.533767 -0.285497 -58.537709 -0.943398 0.100399 0.217509 13.049909 -3.995210 -8.712821 0.000000 0.000000 0.000000 -0.603600 -1.868909 -0.962767 -8.528044 -6.787404 -2.012434 -7.856969 0.556427 -1.805398 9.138645 3.845692 3.520685 0.000000 0.000000 0.000000 0.000000 0.000000 0.000000 0.076301 -9.964137 -10.075777 -7.218805 1.531453 10.146724 -37.971068 30.413584 18.616263 26.150445 -35.098275 -2.579710 0.000000 0.000000 0.000000 0.000000 0.000000 0.000000 -22.702256 23.977295 -51.948963 27.170844 -1.163862 -2.716965 4.043902 4.662530 1.142392 0.000000 0.000000 0.000000 -55.404701 8.821869 -58.807804 42.861692 39.352292 -10.934753 -11.572422 -8.916441 -22.121107 0.000000 0.000000 0.000000
-11.579038 82.827198 312.588412 6.265797 3.946842 44.360029 0.700993 -0.202819 -44.355908 -0.810609 0.235041 0.227565 12.265538 -4.603673 -8.184884 0.000000 0.000000 0.000000 -1.595543 -2.880926 -1.069201 -6.844412 -5.727629 -1.722742 -8.560157 -0.363294 -2.363884 8.224450 3.433638 3.412977 0.000000 0.000000 0.000000 0.000000 0.000000 0.000000 -0.521961 -9.290457 -9.301289 -6.681242 1.668841 9.354823 -36.121996 29.379863 15.785077 29.702595 -31.220988 2.023679 0.000000 0.000000 0.000000 0.000000 0.000000 0.000000 -28.789682 17.464663 -38.956333 27.852624 0.711277 -2.254221 4.088863 3.885772 0.333084 0.000000 0.000000 0.000000 -53.329313 -2.678678 -50.286204 38.663201 35.927658 -8.318920 -8.421598 -6.085931 -24.027525 0.000000 0.000000 0.000000
-11.515009 84.127483 312.916156 6.361522 4.060440 -26.595240 0.394649 0.644292 26.585263 -0.814198 0.307988 0.227345 11.505752 -5.398005 -7.554540 0.000000 0.000000 0.000000 -2.397606 -3.679737 -1.109264 -5.098838 -4.870649 -1.523074 -10.563612 -1.163562 -3.009757 9.423423 2.373522 3.402228 0.000000 0.000000 0.000000 0.000000 0.000000 0.000000 -1.275516 -8.485524 -8.148063 -5.867736 1.390531 8.111166 -35.527415 29.049212 13.760107 34.380391 -27.821517 6.801822 0.000000 0.000000 0.000000 0.000000 0.000000 0.000000 -27.475120 -21.559167 20.774349 28.388489 3.587958 -1.485942 4.286062 3.091397 -0.224242 0.000000 0.000000 0.000000 -21.862616 -49.796583 12.493399 40.970744 34.306542 -9.312782 -7.049375 -5.132249 -26.330660 0.000000 0.000000 0.000000
-12.310475 85.333930 313.805567 5.697026 3.865757 -69.484567 -0.181866 1.075321 69.502659 -0.767543 0.223944 0.222596 10.777202 -6.384529 -6.539910 0.000000 0.000000 0.000000 -2.777092 -3.733250 -0.999590 -3.392966 -4.249628 -1.416682 -11.901533 -1.287367 -3.059831 10.527155 0.683433 3.032565 0.000000 0.000000 0.000000 0.000000 0.000000 0.000000 -1.164671 -6.562252 -7.369731 -5.761584 -1.187291 7.210149 -39.961375 31.963327 16.798806 41.741873 -29.357965 10.884161 0.000000 0.000000 0.000000 0.000000 0.000000 0.000000 -3.058584 -33.447214 67.212176 27.843626 5.765297 -0.896001 4.226162 2.151476 -0.487043 0.000000 0.000000 0.000000 26.888816 -44.627549 77.320312 40.769944 32.513375 -9.055056 -9.762554 -6.971738 -25.639150 0.000000 0.000000 0.000000
-12.798314 85.789760 314.514882 5.560526 4.039057 -75.799053 -0.187816 0.777356 75.800980 -0.562797 0.423922 0.221157 10.453928 -7.525893 -5.787431 0.000000 0.000000 0.000000 -2.929593 -3.504050 -0.785024 -1.832043 -3.718350 -1.155934 -13.118734 -1.956692 -3.514354 13.486810 -0.126313 3.443433 0.000000 0.000000 0.000000 0.000000 0.000000 0.000000 -1.451598 -5.163749 -6.353142 -5.468648 -2.462035 6.245396 -43.601946 33.908447 17.991241 49.086873 -28.220989 16.395529 0.000000 0.000000 0.000000 0.000000 0.000000 0.000000 2.224231 -33.069109 74.436042 27.217935 7.322754 -0.462433 4.148335 1.627879 -0.107668 0.000000 0.000000 0.000000 30.487581 -40.797991 84.269779 40.209165 31.941753 -8.854014 -9.823964 -7.822091 -25.301220 0.000000 0.000000 0.000000
-13.511798 85.393144 315.252436 5.173672 4.199998 -75.087904 -0.027460 0.573156 75.080022 -0.345968 0.593522 0.216379 10.958261 -7.969413 -5.617295 0.000000 0.000000 0.000000 -2.975455 -2.745369 -0.392259 -0.147222 -3.872291 -1.182161 -16.380344 -1.197023 -3.258519 17.355322 -2.380502 3.309375 0.000000 0.000000 0.000000 0.000000 0.000000 0.000000 -1.864603 -3.583052 -4.946325 -5.554962 -3.412160 5.317634 -42.050209 34.777189 13.372980 50.140402 -23.228740 20.664110 0.000000 0.000000 0.000000 0.000000 0.000000 0.000000 2.408586 -31.558743 73.539435 26.016496 7.931979 -0.240578 3.876902 1.501389 1.066829 0.000000 0.000000 0.000000 29.294423 -40.137277 82.814611 39.580816 32.501017 -8.767917 -9.816577 -8.806732 -24.111223 0.000000 0.000000 0.000000
-13.960010 84.066911 315.831114 5.135508 4.495826 -68.970280 0.005259 0.290546 68.930138 -0.330130 0.720999 0.202061 11.559314 -8.021568 -5.752499 0.000000 0.000000 0.000000 -3.317346 -2.685523 -0.104377 0.340008 -3.718230 -1.150462 -17.482179 -1.517383 -3.901423 20.386031 -0.324370 4.406539 0.000000 0.000000 0.000000 0.000000 0.000000 0.000000 -2.455621 -2.624115 -3.480232 -5.271846 -4.907725 3.950227 -45.528336 36.867361 16.090296 52.758810 -23.683754 22.701381 0.000000 0.000000 0.000000 0.000000 0.000000 0.000000 -1.090807 -30.163843 66.706953 24.747420 7.605611 -0.331634 3.717576 1.276165 1.554100 0.000000 0.000000 0.000000 24.952682 -42.919979 75.560482 39.410653 32.675497 -8.710906 -9.688814 -8.701276 -23.646419 0.000000 0.000000 0.000000
-15.080826 82.692709 316.430846 4.418914 4.749829 -66.139982 0.070320 0.312990 66.094382 -0.191455 0.859574 0.189382 12.596332 -7.743680 -6.096678 0.000000 0.000000 0.000000 -3.909246 -2.778199 0.259009 0.575471 -3.459627 -1.186248 -19.690104 -1.934707 -5.188848 24.299651 3.616836 5.914371 0.000000 0.000000 0.000000 0.000000 0.000000 0.000000 -2.922175 -1.851727 -1.903552 -5.326300 -5.812138 2.806710 -53.513330 38.397299 27.189853 57.358504 -30.134968 21.816895 0.000000 0.000000 0.000000 0.000000 0.000000 0.000000 -1.632093 -27.285744 63.892693 22.635174 7.350910 -0.228653 3.369640 1.007194 1.934853 0.000000 0.000000 0.000000 24.103278 -43.385370 71.803871 39.282382 34.070253 -8.770728 -10.109938 -9.044105 -23.342272 0.000000 0.000000 0.000000
-16.627598 81.195122 316.980251 3.377200 4.993162 -61.972288 0.172734 0.401710 61.932299 -0.072791 0.953679 0.169374 13.599015 -7.142478 -6.436622 0.000000 0.000000 0.000000 -4.477850 -2.914080 0.672480 0.665719 -3.057990 -1.199620 -21.165878 -2.649551 -6.819046 24.923666 5.669092 6.377601 0.000000 0.000000 0.000000 0.000000 0.000000 0.000000 -3.001129 -1.652151 -0.590282 -5.412419 -5.939163 2.018438 -72.354829 35.823444 52.655299 68.348604 -47.171977 19.948788 0.000000 0.000000 0.000000 0.000000 0.000000 0.000000 -2.266664 -23.289882 60.011439 19.809867 6.516664 -0.220922 2.910153 0.835009 2.316417 0.000000 0.000000 0.000000 24.924047 -46.092586 67.142406 42.681874 39.217699 -11.068080 -11.909236 -10.768397 -23.296260 0.000000 0.000000 0.000000
-18.365073 79.981921 317.563737 2.161360 5.173045 -58.194284 0.312297 0.592509 58.174931 0.021427 0.953746 0.148384 14.405342 -6.421073 -6.682554 0.000000 0.000000 0.000000 -5.223768 -2.955165 1.142479 -0.242038 -2.517964 -1.153591 -21.713528 -2.899170 -8.401997 27.494759 7.331964 7.058473 0.000000 0.000000 0.000000 0.000000 0.000000 0.000000 -2.946123 -1.589436 0.620777 -5.318658 -5.706400 1.300384 -85.975560 32.291169 65.977075 82.410642 -55.029282 27.581747 0.000000 0.000000 0.000000 0.000000 0.000000 0.000000 -1.969767 -18.785551 56.806670 16.505842 5.500771 -0.239153 2.453542 0.707461 2.665579 0.000000 0.000000 0.000000 24.130703 -46.647337 61.900199 43.459072 42.057895 -11.919430 -13.372569 -11.873845 -23.240123 0.000000 0.000000 0.000000
